<?xml version="1.0" encoding="utf-8"?>
<!-- Generator: Adobe Illustrator 17.1.0, SVG Export Plug-In . SVG Version: 6.00 Build 0)  -->
<!DOCTYPE svg PUBLIC "-//W3C//DTD SVG 1.1//EN" "http://www.w3.org/Graphics/SVG/1.1/DTD/svg11.dtd">
<svg version="1.1" id="Layer_1" xmlns="http://www.w3.org/2000/svg" xmlns:xlink="http://www.w3.org/1999/xlink" x="0px" y="0px"
	 viewBox="0 0 100 100" enable-background="new 0 0 100 100" xml:space="preserve">
<g id="Layer_1_2_">
	<path d="M50.5,38.9h3.1v6.3h-3.1V38.9z M78.7,48.3v12.6H23.5l-6.3-6.3l6.3-6.3H78.7z M50.5,64h3.1v25.1h-3.1V64z M25.3,35.7V23.2
		h55.3l6.3,6.3l-6.3,6.3H25.3z M50.5,16.9h3.1V20h-3.1V16.9z M81.9,38.9l9.4-9.4L81.9,20H56.8v-6.3h-9.4V20H22.2v18.9h25.1v6.3H22.2
		l-9.4,9.4l9.4,9.4h25.1v28.3h9.4V64h25.1V45.1H56.8v-6.3H81.9"/>
</g>
</svg>
