<?xml version="1.0" encoding="utf-8"?>
<!-- Generator: Adobe Illustrator 17.1.0, SVG Export Plug-In . SVG Version: 6.00 Build 0)  -->
<!DOCTYPE svg PUBLIC "-//W3C//DTD SVG 1.1//EN" "http://www.w3.org/Graphics/SVG/1.1/DTD/svg11.dtd">
<svg version="1.1" id="Layer_1" xmlns="http://www.w3.org/2000/svg" xmlns:xlink="http://www.w3.org/1999/xlink" x="0px" y="0px"
	 viewBox="0 0 100 100" enable-background="new 0 0 100 100" xml:space="preserve">
<g id="Dinner_x5F_Set_1_">
	<g>
		<defs>
			<rect id="SVGID_1_" x="2.3" y="26.2" width="95.2" height="61.8"/>
		</defs>
		<clipPath id="SVGID_2_">
			<use xlink:href="#SVGID_1_"  overflow="visible"/>
		</clipPath>
		<path clip-path="url(#SVGID_2_)" d="M15,32.7v13.1c0,1.8-1.5,3.3-3.2,3.3V32.7H8.7v16.2c-1.7,0-3.2-1.5-3.2-3.3V32.7H2.2v13.1
			c0,3.5,2.9,6.5,6.3,6.5v32.5h3.2V52.2c3.4,0,6.3-2.9,6.3-6.5V32.7H15z"/>
	</g>
	<g>
		<defs>
			<rect id="SVGID_3_" x="2.3" y="26.2" width="95.2" height="61.8"/>
		</defs>
		<clipPath id="SVGID_4_">
			<use xlink:href="#SVGID_3_"  overflow="visible"/>
		</clipPath>
		<path clip-path="url(#SVGID_4_)" d="M94.3,32.7c-3.4,0-6.3,2.9-6.3,6.5v19.5V62h6.3v22.8h3.2V32.7H94.3z M94.3,58.7h-3.2V39.2
			c0-1.8,1.5-3.3,3.2-3.3V58.7z"/>
	</g>
	<g>
		<defs>
			<rect id="SVGID_5_" x="2.3" y="26.2" width="95.2" height="61.8"/>
		</defs>
		<clipPath id="SVGID_6_">
			<use xlink:href="#SVGID_5_"  overflow="visible"/>
		</clipPath>
		<path clip-path="url(#SVGID_6_)" d="M51.5,26.2c-16.6,0-30.2,13.8-30.2,30.9S34.8,88,51.5,88c16.6,0,30.2-13.8,30.2-30.9
			S68.1,26.2,51.5,26.2z M51.5,85.4c-15.3,0-27.6-12.7-27.6-28.3s12.4-28.3,27.6-28.3s27.6,12.7,27.6,28.3S66.6,85.4,51.5,85.4z"/>
	</g>
	<g>
		<defs>
			<rect id="SVGID_7_" x="2.3" y="26.2" width="95.2" height="61.8"/>
		</defs>
		<clipPath id="SVGID_8_">
			<use xlink:href="#SVGID_7_"  overflow="visible"/>
		</clipPath>
		<path clip-path="url(#SVGID_8_)" d="M33.3,57.1c0-10.3,8.1-18.5,18.1-18.5c8.5,0,15.6,6.1,17.6,14.3c0.2-0.7,0.5-1.6,0.6-2.3
			C67.1,42.2,59.7,36.3,51,36c-11,0.2-20,9.4-20.3,20.7c0.1,9,6.1,16.6,14.2,19c0.7-0.1,1.6-0.4,2.3-0.6
			C39.2,73.2,33.3,65.9,33.3,57.1z"/>
	</g>
</g>
</svg>
