<?xml version="1.0" encoding="utf-8"?>
<!-- Generator: Adobe Illustrator 17.1.0, SVG Export Plug-In . SVG Version: 6.00 Build 0)  -->
<!DOCTYPE svg PUBLIC "-//W3C//DTD SVG 1.1//EN" "http://www.w3.org/Graphics/SVG/1.1/DTD/svg11.dtd">
<svg version="1.1" id="Layer_1" xmlns="http://www.w3.org/2000/svg" xmlns:xlink="http://www.w3.org/1999/xlink" x="0px" y="0px"
	 viewBox="0 0 100 100" enable-background="new 0 0 100 100" xml:space="preserve">
<g id="Dinner_x5F_Set_1_">
	<defs>
		<rect id="SVGID_1_" x="11" y="26.4" width="78.5" height="50.6"/>
	</defs>
	<clipPath id="SVGID_2_">
		<use xlink:href="#SVGID_1_"  overflow="visible"/>
	</clipPath>
	<path clip-path="url(#SVGID_2_)" d="M21.5,31.7v10.7c0,1.5-1.2,2.7-2.6,2.7V31.7h-2.6V45c-1.4,0-2.6-1.2-2.6-2.7V31.7H11v10.7
		c0,2.9,2.4,5.3,5.2,5.3v26.6h2.6V47.7c2.8,0,5.2-2.4,5.2-5.3V31.7H21.5z"/>
	<path clip-path="url(#SVGID_2_)" d="M86.9,31.7c-2.8,0-5.2,2.4-5.2,5.3v16v2.7h5.2v18.7h2.6V31.7H86.9z M86.9,53h-2.6V37
		c0-1.5,1.2-2.7,2.6-2.7V53z"/>
	<path clip-path="url(#SVGID_2_)" d="M51.6,26.4c-13.7,0-24.9,11.3-24.9,25.3S37.8,77,51.6,77c13.7,0,24.9-11.3,24.9-25.3
		S65.3,26.4,51.6,26.4z M51.6,74.9c-12.6,0-22.8-10.4-22.8-23.2S39,28.5,51.6,28.5c12.6,0,22.8,10.4,22.8,23.2S64.1,74.9,51.6,74.9z
		"/>
	<path clip-path="url(#SVGID_2_)" d="M36.6,51.7c0-8.4,6.7-15.2,14.9-15.2c7,0,12.9,5,14.5,11.7c0.2-0.6,0.4-1.3,0.5-1.9
		c-2-6.8-8.1-11.7-15.3-11.9c-9.1,0.2-16.5,7.7-16.7,17c0.1,7.4,5,13.6,11.7,15.6c0.6-0.1,1.3-0.3,1.9-0.5
		C41.5,64.9,36.6,58.9,36.6,51.7z"/>
</g>
</svg>
