<?xml version="1.0" encoding="UTF-8"?>
<!DOCTYPE svg PUBLIC "-//W3C//DTD SVG 1.1//EN" "http://www.w3.org/Graphics/SVG/1.1/DTD/svg11.dtd">
<svg version="1.1" xmlns="http://www.w3.org/2000/svg" xmlns:xlink="http://www.w3.org/1999/xlink" x="0px" y="0px" width="100" height="100" viewBox="0, 0, 100, 100">
  <g id="Background">
    <rect x="0" y="0" width="100" height="100" fill="#FFFFFF"/>
  </g>
  <g id="Layer 1">
    <path d="M12.747,73.984 L12.747,73.984 L12.747,33.62 z" fill="#010101"/>
    <path d="M66.625,20.737 C66.467,21.652 66.204,22.566 65.829,23.398 L78.516,28.277 L74.689,34.704 L79.918,36.533 L83.429,27.194 L66.625,20.737" fill="#000000"/>
    <path d="M59.096,92.232 C58.375,92.484 57.58,92.124 57.319,91.4 L45.636,59.062 L39.091,59.062 L39.091,90.929 C39.091,91.705 38.47,92.315 37.706,92.315 C36.943,92.315 36.32,91.705 36.32,90.929 L36.32,55.044 L44.32,32.016 L32.604,27.776 C31.168,27.252 30.426,25.642 30.947,24.201 L35.943,10.096 C36.204,9.376 37.004,9.016 37.719,9.265 C38.437,9.542 38.811,10.318 38.548,11.038 L33.549,25.174 L53.082,32.237 C55.95,33.29 57.494,36.48 56.449,39.331 L49.009,60.891 L59.924,90.458 C60.185,91.179 59.813,91.982 59.096,92.232 z M62.529,89.516 L52.007,60.891 L58.999,40.301 C60.476,36.228 58.589,31.766 54.756,29.937 L54.756,29.91 L37.104,23.508 L40.435,14.031 L45.082,15.777 C45.343,14.893 45.72,14.031 46.191,13.228 L41.3,11.399 C41.713,9.403 40.629,7.383 38.667,6.66 C36.511,5.887 34.122,6.993 33.338,9.154 L28.342,23.259 C27.3,26.141 28.783,29.33 31.656,30.381 L40.817,33.678 L33.549,54.905 L33.549,90.929 C33.549,93.229 35.411,95.086 37.706,95.086 C40,95.086 41.862,93.229 41.862,90.929 L41.862,61.833 L43.73,61.833 L54.715,92.343 C55.499,94.504 57.885,95.612 60.043,94.837 C62.199,94.061 63.313,91.65 62.529,89.516" fill="#000000"/>
    <path d="M55.718,10.567 C51.129,10.567 47.404,14.281 47.404,18.881 C47.404,23.481 51.129,27.194 55.718,27.194 C60.309,27.194 64.031,23.481 64.031,18.881 C64.031,14.281 60.309,10.567 55.718,10.567 z M55.718,13.338 C58.774,13.338 61.26,15.832 61.26,18.881 C61.26,21.932 58.774,24.423 55.718,24.423 C52.664,24.423 50.175,21.932 50.175,18.881 C50.175,15.832 52.664,13.338 55.718,13.338" fill="#000000"/>
  </g>
  <defs/>
</svg>
