<?xml version="1.0" encoding="utf-8"?>
<!-- Generator: Adobe Illustrator 17.1.0, SVG Export Plug-In . SVG Version: 6.00 Build 0)  -->
<!DOCTYPE svg PUBLIC "-//W3C//DTD SVG 1.1//EN" "http://www.w3.org/Graphics/SVG/1.1/DTD/svg11.dtd">
<svg version="1.1" id="Layer_1" xmlns="http://www.w3.org/2000/svg" xmlns:xlink="http://www.w3.org/1999/xlink" x="0px" y="0px"
	 viewBox="0 0 100 100" enable-background="new 0 0 100 100" xml:space="preserve">
<g id="Layer_1_1_">
	<path d="M64.5,20.5c-0.2,0.9-0.4,1.8-0.8,2.7L76.4,28l-3.8,6.4l5.2,1.8l3.5-9.3L64.5,20.5"/>
	<path d="M57,92c-0.7,0.3-1.5-0.1-1.8-0.8L43.5,58.8H37v31.9c0,0.8-0.6,1.4-1.4,1.4c-0.8,0-1.4-0.6-1.4-1.4V54.8l8-23l-11.7-4.2
		c-1.4-0.5-2.2-2.1-1.7-3.6l5-14.1c0.3-0.7,1.1-1.1,1.8-0.8c0.7,0.3,1.1,1.1,0.8,1.8l-5,14.1L51,32c2.9,1.1,4.4,4.2,3.4,7.1
		l-7.4,21.6l10.9,29.6C58.1,90.9,57.7,91.7,57,92z M60.4,89.2L49.9,60.6l7-20.6c1.5-4.1-0.4-8.5-4.2-10.4v0L35,23.2l3.3-9.5l4.6,1.7
		c0.3-0.9,0.6-1.7,1.1-2.5l-4.9-1.8c0.4-2-0.7-4-2.6-4.7c-2.2-0.8-4.5,0.3-5.3,2.5l-5,14.1c-1,2.9,0.4,6.1,3.3,7.1l9.2,3.3
		l-7.3,21.2v36c0,2.3,1.9,4.2,4.2,4.2c2.3,0,4.2-1.9,4.2-4.2V61.6h1.9l11,30.5c0.8,2.2,3.2,3.3,5.3,2.5
		C60.1,93.8,61.2,91.4,60.4,89.2"/>
	<path d="M53.6,10.3c-4.6,0-8.3,3.7-8.3,8.3s3.7,8.3,8.3,8.3c4.6,0,8.3-3.7,8.3-8.3S58.2,10.3,53.6,10.3z M53.6,13.1
		c3.1,0,5.5,2.5,5.5,5.5c0,3.1-2.5,5.5-5.5,5.5c-3.1,0-5.5-2.5-5.5-5.5C48.1,15.6,50.6,13.1,53.6,13.1"/>
</g>
</svg>
