<?xml version="1.0" encoding="utf-8"?>
<!-- Generator: Adobe Illustrator 17.1.0, SVG Export Plug-In . SVG Version: 6.00 Build 0)  -->
<!DOCTYPE svg PUBLIC "-//W3C//DTD SVG 1.1//EN" "http://www.w3.org/Graphics/SVG/1.1/DTD/svg11.dtd">
<svg version="1.1" id="Layer_1" xmlns="http://www.w3.org/2000/svg" xmlns:xlink="http://www.w3.org/1999/xlink" x="0px" y="0px"
	 viewBox="0 0 100 100" enable-background="new 0 0 100 100" xml:space="preserve">
<g id="Shopping_x5F_Basket_1_">
	<defs>
		<rect id="SVGID_1_" x="11.3" y="22.5" width="76.8" height="62.6"/>
	</defs>
	<clipPath id="SVGID_2_">
		<use xlink:href="#SVGID_1_"  overflow="visible"/>
	</clipPath>
	<rect x="48.3" y="59.5" clip-path="url(#SVGID_2_)" width="2.8" height="19.9"/>
	<rect x="56.9" y="59.5" clip-path="url(#SVGID_2_)" width="2.8" height="19.9"/>
	<rect x="65.4" y="59.5" clip-path="url(#SVGID_2_)" width="2.8" height="19.9"/>
	<rect x="31.3" y="59.5" clip-path="url(#SVGID_2_)" width="2.8" height="19.9"/>
	<rect x="39.8" y="59.5" clip-path="url(#SVGID_2_)" width="2.8" height="19.9"/>
	<polygon clip-path="url(#SVGID_2_)" points="37.5,45.3 62.1,45.3 60,42.4 39.5,42.4 	"/>
	<path clip-path="url(#SVGID_2_)" d="M70.5,42.4l2,2.8h10.7L82.5,51c-0.2,2.2-1.3,2.8-2.8,2.8H19.9c-1.6,0-2.6-0.7-2.8-2.8l-0.7-5.7
		H27l2-2.8H11.3v2.8h2.1l0.8,5.7c0.2,2.6,1.4,4.5,3.3,5.5l2.7,23.3c0.5,3.1,2.8,5.4,5.4,5.4h48.4c2.6,0,5-2.4,5.4-5.4L82,56.4
		c1.9-0.9,3.1-2.8,3.3-5.5l0.8-5.7h2.1v-2.8H70.5z M76.6,79.2c-0.2,1.5-1.2,3.1-2.6,3.1H25.6c-1.5,0-2.4-1.6-2.6-3.1l-3.1-22.5h59.8
		L76.6,79.2z"/>
	
		<rect x="37.2" y="21.3" transform="matrix(0.8134 0.5817 -0.5817 0.8134 28.6653 -15.3796)" clip-path="url(#SVGID_2_)" width="2.3" height="31.3"/>
	
		<rect x="60.1" y="21.3" transform="matrix(-0.8134 0.5817 -0.5817 -0.8134 132.5287 31.4799)" clip-path="url(#SVGID_2_)" width="2.3" height="31.3"/>
</g>
</svg>
